<svg width="48.000000" height="48.000000" viewBox="0 0 48 48" fill="none" xmlns="http://www.w3.org/2000/svg" xmlns:xlink="http://www.w3.org/1999/xlink">
	<desc>
			Created with Pixso.
	</desc>
	<g clip-path="url(#clip2_52)">
		<rect width="48.000000" height="48.000000" fill="#FFFFFF" fill-opacity="0.0078"/>
		<path d="M31 13C31 9.134 27.866 6 24 6C20.134 6 17 9.134 17 13C17 16.866 20.134 20 24 20C27.866 20 31 16.866 31 13Z" stroke="#808080" stroke-width="3.000000" stroke-linejoin="round"/>
		<path d="M6 42L42 42L42 40.8C42 36.3196 42 34.0794 41.1281 32.3681C40.3611 30.8628 39.1372 29.6389 37.6319 28.8719C35.9206 28 33.6804 28 29.2 28L18.8 28C14.3196 28 12.0794 28 10.3681 28.8719C8.86279 29.6389 7.63892 30.8628 6.87195 32.3681C6 34.0794 6 36.3196 6 40.8L6 42Z" stroke="#808080" stroke-width="3.000000" stroke-linejoin="round"/>
	</g>
	<defs>
		<clipPath id="clip2_52">
			<rect width="48.000000" height="48.000000" fill="white"/>
		</clipPath>
	</defs>
</svg>
